<svg width="132" height="1500" viewBox="0 0 132 1500" fill="none" xmlns="http://www.w3.org/2000/svg">
  <g>
    <ellipse cx="66" cy="1432" rx="50" ry="14" fill="#D8C5B8"/>
    <path d="M20 1396C20 1382 40 1372 66 1372C92 1372 112 1382 112 1396V1418H20V1396Z" fill="#E9D7CC" stroke="#5E342C" stroke-width="3"/>
    <path d="M26 1368C26 1356 44 1348 66 1348C88 1348 106 1356 106 1368V1380H26V1368Z" fill="#EEDFD4" stroke="#5E342C" stroke-width="3"/>
    <rect x="34" y="182" width="64" height="1180" rx="18" fill="#F3E6DE" stroke="#5E342C" stroke-width="3"/>
    <path d="M42 206V1334M50 206V1334M58 206V1334M66 206V1334M74 206V1334M82 206V1334M90 206V1334" stroke="#5E342C" stroke-width="3" stroke-linecap="round"/>

    <rect x="20" y="28" width="92" height="14" rx="2" fill="#D9BFB1" stroke="#5E342C" stroke-width="3"/>
    <path d="M24 42H108C108 42 106 60 96 70C86 80 74 84 66 84C58 84 46 80 36 70C26 60 24 42 24 42Z" fill="#F1DED3" stroke="#5E342C" stroke-width="3"/>
    <rect x="30" y="84" width="72" height="16" rx="8" fill="#EEDFD4" stroke="#5E342C" stroke-width="3"/>
    <rect x="34" y="100" width="64" height="14" rx="6" fill="#F1E2D9" stroke="#5E342C" stroke-width="3"/>
    <rect x="32" y="114" width="68" height="10" rx="5" fill="#E7D4C8" stroke="#5E342C" stroke-width="3"/>
    <rect x="32" y="124" width="68" height="58" rx="12" fill="#F1E2D9" stroke="#5E342C" stroke-width="3"/>
  </g>
</svg>
