<svg width="96" height="1200" viewBox="0 0 96 1200" fill="none" xmlns="http://www.w3.org/2000/svg">
  <rect x="20" y="90" width="56" height="1030" rx="6" fill="#EFE6D4" stroke="#8A7B64" stroke-width="3"/>
  <rect x="10" y="40" width="76" height="58" rx="6" fill="#E8DDC8" stroke="#8A7B64" stroke-width="3"/>
  <rect x="8" y="1116" width="80" height="58" rx="6" fill="#E8DDC8" stroke="#8A7B64" stroke-width="3"/>
  <path d="M20 130H76M20 170H76M20 210H76M20 250H76M20 290H76M20 330H76M20 370H76M20 410H76M20 450H76M20 490H76M20 530H76M20 570H76M20 610H76M20 650H76M20 690H76M20 730H76M20 770H76M20 810H76M20 850H76M20 890H76M20 930H76M20 970H76M20 1010H76M20 1050H76" stroke="#C7B89E" stroke-width="2"/>
  <path d="M14 68C26 84 38 78 48 64C58 50 70 44 80 64" stroke="#8A7B64" stroke-width="3" stroke-linecap="round"/>
</svg>
