<svg width="120" height="1400" viewBox="0 0 120 1400" fill="none" xmlns="http://www.w3.org/2000/svg">
  <rect x="32" y="120" width="56" height="1120" rx="6" fill="#EFE8D9" stroke="#8A7A63" stroke-width="3"/>
  <rect x="20" y="70" width="80" height="56" rx="8" fill="#E6DCC8" stroke="#8A7A63" stroke-width="3"/>
  <rect x="18" y="1236" width="84" height="62" rx="8" fill="#E6DCC8" stroke="#8A7A63" stroke-width="3"/>
  <path d="M32 160H88M32 210H88M32 260H88M32 310H88M32 360H88M32 410H88M32 460H88M32 510H88M32 560H88M32 610H88M32 660H88M32 710H88M32 760H88M32 810H88M32 860H88M32 910H88M32 960H88M32 1010H88M32 1060H88M32 1110H88M32 1160H88" stroke="#CAB99D" stroke-width="2"/>
  <path d="M24 88C42 104 54 102 64 88C74 74 86 70 96 88" stroke="#8A7A63" stroke-width="3" stroke-linecap="round"/>
  <path d="M36 84C42 72 50 76 56 84M84 84C78 72 70 76 64 84" stroke="#A89779" stroke-width="2.5" stroke-linecap="round"/>
</svg>
